
<svg width="144px" height="135px" viewBox="0 0 144 135" version="1.1" xmlns="http://www.w3.org/2000/svg" xmlns:xlink="http://www.w3.org/1999/xlink">
    <!-- Generator: Sketch 49.3 (51167) - http://www.bohemiancoding.com/sketch -->
    <desc>Created with Sketch.</desc>
    <defs></defs>
    <g id="Page-1" stroke="none" stroke-width="1" fill="none" fill-rule="evenodd">
        <g id="Group-2" fill="#FF9900" fill-rule="nonzero">
            <g id="Group" transform="translate(38.000000, 0.000000)">
                <polyline id="Shape" points="32.4702298 70.7115786 0.645987957 59.2940368 0.645987957 12.6483769 32.4702298 23.4919372 32.4702298 70.7115786"></polyline>
                <polyline id="Shape" points="38.3066288 70.7115786 70.1308707 59.2940368 70.1308707 12.6483769 38.3066288 23.4919372 38.3066288 70.7115786"></polyline>
                <polyline id="Shape" points="3.91602712 9.16033517 36.125223 0.0939101436 65.9902008 9.72327862 36.125223 19.8617798 3.91602712 9.16033517"></polyline>
            </g>
            <g id="Group" transform="translate(0.000000, 63.511811)">
                <polyline id="Shape" points="31.8732666 71.058546 0.0490247168 59.6423839 0.0490247168 12.9953443 31.8732666 23.8375248 31.8732666 71.058546"></polyline>
                <polyline id="Shape" points="37.7096656 71.058546 69.5352872 59.6423839 69.5352872 12.9953443 37.7096656 23.8375248 37.7096656 71.058546"></polyline>
                <polyline id="Shape" points="3.31906388 9.50454301 35.5282597 0.439497747 65.3946173 10.0688662 35.5282597 20.2087471 3.31906388 9.50454301"></polyline>
            </g>
            <g id="Group" transform="translate(73.574803, 63.511811)">
                <polyline id="Shape" points="32.5573274 71.058546 0.731705756 59.6423839 0.731705756 12.9953443 32.5573274 23.8375248 32.5573274 71.058546"></polyline>
                <polyline id="Shape" points="38.3937264 71.058546 70.2193481 59.6423839 70.2193481 12.9953443 38.3937264 23.8375248 38.3937264 71.058546"></polyline>
                <polyline id="Shape" points="4.00312468 9.50454301 36.2123206 0.439497747 66.0772984 10.0688662 36.2123206 20.2087471 4.00312468 9.50454301"></polyline>
            </g>
        </g>
    </g>
</svg>