<svg width="482px" height="288px" viewBox="0 0 482 288" version="1.1" xmlns="http://www.w3.org/2000/svg" xmlns:xlink="http://www.w3.org/1999/xlink">
    <!-- Generator: Sketch 49.3 (51167) - http://www.bohemiancoding.com/sketch -->
    <desc>Created with Sketch.</desc>
    <defs></defs>
    <g id="Page-1" stroke="none" stroke-width="1" fill="none" fill-rule="evenodd">
        <g id="laptop" fill="#000000" fill-rule="nonzero">
            <path d="M433,255.5 L433,17.1 C433,7.7 425.1,0 415.8,0 L66.2,0 C56.9,0 49,7.6 49,17.1 L49,255.5 L0.9,255.5 C0.9,265.4 10.8,274.3 19.8,278.2 C30.7,282.8 49,288 69,288 L413,288 C433,288 451.2,283.5 461.3,279.2 C470.8,275.2 481.1,265.8 481.1,255.5 L433,255.5 Z M241,8 C243.2,8 245,9.8 245,12 C245,14.2 243.2,16 241,16 C238.8,16 237,14.2 237,12 C237,9.8 238.8,8 241,8 Z M67,24.2 L415,24.2 C416.1,24.2 417,25.1 417,26.2 L417,237.5 C417,238.6 416.1,239.5 415,239.5 L67,239.5 C65.9,239.5 65,238.6 65,237.5 L65,26.2 C65,25 65.9,24.2 67,24.2 Z M283.3,263.5 C283.3,263.5 204,263.5 198.7,263.5 C193.5,263.5 189,257.5 189,256 L293,256 C293,257.5 290,263.5 283.3,263.5 Z" id="Shape"></path>
        </g>
        <g id="code" transform="translate(139.000000, 61.000000)" fill="#000000" fill-rule="nonzero">
            <path d="M142.803571,1.00521739 C142.160714,0.354782609 141.357143,0 140.607143,0 C139.857143,0 139,0.354782609 138.410714,1.00521739 L131.017857,8.81043478 C130.375,9.46086957 130,10.4069565 130,11.3530435 C130,12.2991304 130.375,13.2452174 131.017857,13.8956522 L182.339286,68 L131.017857,122.104348 C130.375,122.754783 130,123.70087 130,124.646957 C130,125.593043 130.375,126.53913 131.017857,127.189565 L138.410714,134.994783 C139.053571,135.645217 139.803571,136 140.607143,136 C141.410714,136 142.214286,135.645217 142.803571,134.994783 L203.982143,70.5426087 C204.625,69.8921739 205,68.946087 205,68 C205,67.053913 204.625,66.1078261 203.982143,65.4573913 L142.803571,1.00521739 Z" id="Shape"></path>
            <path d="M75,11.3530435 C75,10.4069565 74.625,9.46086957 73.9821429,8.81043478 L66.5892857,1.00521739 C65.9464286,0.354782609 65.1428571,0 64.3928571,0 C63.6428571,0 62.7857143,0.354782609 62.1964286,1.00521739 L1.01785714,65.4573913 C0.375,66.1078261 0,67.053913 0,68 C0,68.946087 0.375,69.8921739 1.01785714,70.5426087 L62.1964286,134.994783 C62.8392857,135.645217 63.6428571,136 64.3928571,136 C65.1964286,136 66,135.645217 66.5892857,134.994783 L73.9821429,127.189565 C74.625,126.53913 75,125.593043 75,124.646957 C75,123.70087 74.625,122.754783 73.9821429,122.104348 L22.6607143,68 L73.9821429,13.8956522 C74.625,13.2452174 75,12.2991304 75,11.3530435 Z" id="Shape"></path>
        </g>
    </g>
</svg>